<svg aria-hidden="true" style="position: absolute; width: 0; height: 0; overflow: hidden;" version="1.1" xmlns="http://www.w3.org/2000/svg" xmlns:xlink="http://www.w3.org/1999/xlink">
<defs>
<symbol id="phone" viewBox="0 0 41 41">
 <title>phone</title>
 <path d="M30.0342 2.46271L13.3675 2.44604C11.5342 2.44604 10.0342 3.94604 10.0342 5.77938V10.7794H13.3675V9.11271H30.0342V32.446H13.3675V30.7794H10.0342V35.7794C10.0342 37.6127 11.5342 39.1127 13.3675 39.1127H30.0342C31.8675 39.1127 33.3675 37.6127 33.3675 35.7794V5.77938C33.3675 3.94604 31.8675 2.46271 30.0342 2.46271ZM16.7008 25.7794H20.0342V14.1127H8.36751V17.446H14.3508L5.03418 26.7627L7.38418 29.1127L16.7008 19.796V25.7794Z" fill="#333333"/>
</symbol>
<symbol id="bell" viewBox="0 0 38 46">
<title>bell</title>
<path d="M19 46C21.6125 46 23.75 43.8769 23.75 41.2821H14.25C14.25 43.8769 16.3638 46 19 46ZM33.25 31.8462V20.0513C33.25 12.8092 29.355 6.74667 22.5625 5.14256V3.53846C22.5625 1.58051 20.9713 0 19 0C17.0287 0 15.4375 1.58051 15.4375 3.53846V5.14256C8.62125 6.74667 4.75 12.7856 4.75 20.0513V31.8462L0 36.5641V38.9231H38V36.5641L33.25 31.8462Z" fill="#333333"/>
</symbol>
<symbol id="basket" viewBox="0 0 34 34">
<title>Shoping basket</title>
<path d="M10.3126 24.874C8.79845 24.874 7.57338 26.1156 7.57338 27.6331C7.57338 29.1507 8.79845 30.3923 10.3126 30.3923C11.8267 30.3923 13.0655 29.1507 13.0655 27.6331C13.0655 26.1156 11.8267 24.874 10.3126 24.874ZM2.05371 2.80078V5.55993H4.80666L9.76198 16.0309L7.90374 19.4109C7.6835 19.7971 7.55962 20.2524 7.55962 20.7353C7.55962 22.2528 8.79845 23.4944 10.3126 23.4944H26.8303V20.7353H10.8907C10.698 20.7353 10.5466 20.5835 10.5466 20.3904L10.5879 20.2248L11.8267 17.9761H22.0814C23.1138 17.9761 24.0223 17.4105 24.4903 16.5551L29.4181 7.6017C29.5282 7.40856 29.5832 7.17403 29.5832 6.93951C29.5832 6.18074 28.9638 5.55993 28.2068 5.55993H7.84868L6.55479 2.80078H2.05371ZM24.0773 24.874C22.5632 24.874 21.3381 26.1156 21.3381 27.6331C21.3381 29.1507 22.5632 30.3923 24.0773 30.3923C25.5915 30.3923 26.8303 29.1507 26.8303 27.6331C26.8303 26.1156 25.5915 24.874 24.0773 24.874Z" fill="#333333"/>
</symbol>
<!-- icons for reature section -->
<symbol id="ondemand_video-24" viewBox="0 0 40 40">
  <title>ondemand_video-24</title>
  <path d="M35.0003 5H5.00033C3.15033 5 1.66699 6.48333 1.66699 8.33333V28.3333C1.66699 30.1667 3.15033 31.6667 5.00033 31.6667H13.3337V35H26.667V31.6667H35.0003C36.8337 31.6667 38.317 30.1667 38.317 28.3333L38.3337 8.33333C38.3337 6.48333 36.8337 5 35.0003 5ZM35.0003 28.3333H5.00033V8.33333H35.0003V28.3333ZM26.667 18.3333L15.0003 25V11.6667L26.667 18.3333Z" />
</symbol>
<symbol id="notifications_active" viewBox="0 0 40 40">
  <title>notifications_active</title>
  <path d="M12.6338 6.80008L10.2505 4.41675C6.25046 7.46675 3.61712 12.1667 3.38379 17.5001H6.71712C6.96712 13.0834 9.23379 9.21675 12.6338 6.80008ZM33.2838 17.5001H36.6171C36.3671 12.1667 33.7338 7.46675 29.7505 4.41675L27.3838 6.80008C30.7505 9.21675 33.0338 13.0834 33.2838 17.5001ZM30.0005 18.3334C30.0005 13.2167 27.2671 8.93341 22.5005 7.80008V6.66675C22.5005 5.28341 21.3838 4.16675 20.0005 4.16675C18.6171 4.16675 17.5005 5.28341 17.5005 6.66675V7.80008C12.7171 8.93341 10.0005 13.2001 10.0005 18.3334V26.6667L6.66712 30.0001V31.6667H33.3338V30.0001L30.0005 26.6667V18.3334ZM20.0005 36.6667C20.2338 36.6667 20.4505 36.6501 20.6671 36.6001C21.7505 36.3667 22.6338 35.6334 23.0671 34.6334C23.2338 34.2334 23.3171 33.8001 23.3171 33.3334H16.6505C16.6671 35.1667 18.1505 36.6667 20.0005 36.6667Z"/>
</symbol>
<symbol id="hd" viewBox="0 0 40 40">
  <title>HD</title>
  <path d="M31.6667 5H8.33333C6.48333 5 5 6.5 5 8.33333V31.6667C5 33.5 6.48333 35 8.33333 35H31.6667C33.5 35 35 33.5 35 31.6667V8.33333C35 6.5 33.5 5 31.6667 5ZM18.3333 25H15.8333V21.6667H12.5V25H10V15H12.5V19.1667H15.8333V15H18.3333V25ZM21.6667 15H28.3333C29.25 15 30 15.75 30 16.6667V23.3333C30 24.25 29.25 25 28.3333 25H21.6667V15ZM24.1667 22.5H27.5V17.5H24.1667V22.5Z" />
</symbol>
<symbol id="flag" viewBox="0 0 40 40">
  <title>flag</title>
  <path d="M23.9997 10.0001L23.333 6.66675H8.33301V35.0001H11.6663V23.3334H20.9997L21.6663 26.6667H33.333V10.0001H23.9997Z" />
</symbol>
<symbol id="style-24" viewBox="0 0 40 40">
  <title>style-24</title>
  <path d="M4.21642 32.7499L6.44976 33.6833V18.6333L2.39976 28.3999C1.71643 30.0999 2.53309 32.0499 4.21642 32.7499ZM36.7164 26.5833L28.4498 6.63325C27.9331 5.38325 26.7164 4.61659 25.4331 4.58325C24.9998 4.58325 24.5498 4.64992 24.1164 4.83325L11.8331 9.91658C10.5831 10.4333 9.81642 11.6333 9.78309 12.9166C9.76642 13.3666 9.84976 13.8166 10.0331 14.2499L18.2998 34.1999C18.8164 35.4666 20.0498 36.2333 21.3498 36.2499C21.7831 36.2499 22.2164 36.1666 22.6331 35.9999L34.8998 30.9166C36.5998 30.2166 37.4164 28.2666 36.7164 26.5833ZM13.1331 14.5833C12.2164 14.5833 11.4664 13.8333 11.4664 12.9166C11.4664 11.9999 12.2164 11.2499 13.1331 11.2499C14.0498 11.2499 14.7998 11.9999 14.7998 12.9166C14.7998 13.8333 14.0498 14.5833 13.1331 14.5833ZM9.79976 32.9166C9.79976 34.7499 11.2998 36.2499 13.1331 36.2499H15.5498L9.79976 22.3499V32.9166Z"/>
</symbol>
<symbol id="poll" viewBox="0 0 40 40">
  <title>poll</title>
  <path d="M31.6667 5H8.33333C6.5 5 5 6.5 5 8.33333V31.6667C5 33.5 6.5 35 8.33333 35H31.6667C33.5 35 35 33.5 35 31.6667V8.33333C35 6.5 33.5 5 31.6667 5ZM15 28.3333H11.6667V16.6667H15V28.3333ZM21.6667 28.3333H18.3333V11.6667H21.6667V28.3333ZM28.3333 28.3333H25V21.6667H28.3333V28.3333Z"/>
</symbol>
<symbol id="add-home-screen" viewBox="0 0 40 40">
  <title>add-home-screen</title>
  <path d="M30 1.68341L13.3333 1.66675C11.5 1.66675 10 3.16675 10 5.00008V10.0001H13.3333V8.33342H30V31.6667H13.3333V30.0001H10V35.0001C10 36.8334 11.5 38.3334 13.3333 38.3334H30C31.8333 38.3334 33.3333 36.8334 33.3333 35.0001V5.00008C33.3333 3.16675 31.8333 1.68341 30 1.68341ZM16.6667 25.0001H20V13.3334H8.33333V16.6667H14.3167L5 25.9834L7.35 28.3334L16.6667 19.0167V25.0001Z"/>
</symbol>
<symbol id="people" viewBox="0 0 40 40">
  <title>people</title>
  <path d="M26.667 18.3333C29.4337 18.3333 31.6503 16.0999 31.6503 13.3333C31.6503 10.5666 29.4337 8.33325 26.667 8.33325C23.9003 8.33325 21.667 10.5666 21.667 13.3333C21.667 16.0999 23.9003 18.3333 26.667 18.3333ZM13.3337 18.3333C16.1003 18.3333 18.317 16.0999 18.317 13.3333C18.317 10.5666 16.1003 8.33325 13.3337 8.33325C10.567 8.33325 8.33366 10.5666 8.33366 13.3333C8.33366 16.0999 10.567 18.3333 13.3337 18.3333ZM13.3337 21.6666C9.45033 21.6666 1.66699 23.6166 1.66699 27.4999V31.6666H25.0003V27.4999C25.0003 23.6166 17.217 21.6666 13.3337 21.6666ZM26.667 21.6666C26.1837 21.6666 25.6337 21.6999 25.0503 21.7499C26.9837 23.1499 28.3337 25.0333 28.3337 27.4999V31.6666H38.3337V27.4999C38.3337 23.6166 30.5503 21.6666 26.667 21.6666Z"/>
</symbol>
<symbol id="tune" viewBox="0 0 40 40">
  <title>tune</title>
  <path d="M5 28.3333V31.6667H15V28.3333H5ZM5 8.33333V11.6667H21.6667V8.33333H5ZM21.6667 35V31.6667H35V28.3333H21.6667V25H18.3333V35H21.6667ZM11.6667 15V18.3333H5V21.6667H11.6667V25H15V15H11.6667ZM35 21.6667V18.3333H18.3333V21.6667H35ZM25 15H28.3333V11.6667H35V8.33333H28.3333V5H25V15Z"/>
</symbol>
</defs>
</svg>