<svg aria-hidden="true" style="position: absolute; width: 0; height: 0; overflow: hidden;" version="1.1" xmlns="http://www.w3.org/2000/svg" xmlns:xlink="http://www.w3.org/1999/xlink">
<defs>
<symbol id="phone" viewBox="0 0 41 41">
 <title>phone</title>
 <path d="M30.0342 2.46271L13.3675 2.44604C11.5342 2.44604 10.0342 3.94604 10.0342 5.77938V10.7794H13.3675V9.11271H30.0342V32.446H13.3675V30.7794H10.0342V35.7794C10.0342 37.6127 11.5342 39.1127 13.3675 39.1127H30.0342C31.8675 39.1127 33.3675 37.6127 33.3675 35.7794V5.77938C33.3675 3.94604 31.8675 2.46271 30.0342 2.46271ZM16.7008 25.7794H20.0342V14.1127H8.36751V17.446H14.3508L5.03418 26.7627L7.38418 29.1127L16.7008 19.796V25.7794Z" fill="#333333"/>
</symbol>
<symbol id="bell" viewBox="0 0 38 46">
<title>bell</title>
<path d="M19 46C21.6125 46 23.75 43.8769 23.75 41.2821H14.25C14.25 43.8769 16.3638 46 19 46ZM33.25 31.8462V20.0513C33.25 12.8092 29.355 6.74667 22.5625 5.14256V3.53846C22.5625 1.58051 20.9713 0 19 0C17.0287 0 15.4375 1.58051 15.4375 3.53846V5.14256C8.62125 6.74667 4.75 12.7856 4.75 20.0513V31.8462L0 36.5641V38.9231H38V36.5641L33.25 31.8462Z" fill="#333333"/>
</symbol>
<symbol id="basket" viewBox="0 0 34 34">
<title>Shoping basket</title>
<path d="M10.3126 24.874C8.79845 24.874 7.57338 26.1156 7.57338 27.6331C7.57338 29.1507 8.79845 30.3923 10.3126 30.3923C11.8267 30.3923 13.0655 29.1507 13.0655 27.6331C13.0655 26.1156 11.8267 24.874 10.3126 24.874ZM2.05371 2.80078V5.55993H4.80666L9.76198 16.0309L7.90374 19.4109C7.6835 19.7971 7.55962 20.2524 7.55962 20.7353C7.55962 22.2528 8.79845 23.4944 10.3126 23.4944H26.8303V20.7353H10.8907C10.698 20.7353 10.5466 20.5835 10.5466 20.3904L10.5879 20.2248L11.8267 17.9761H22.0814C23.1138 17.9761 24.0223 17.4105 24.4903 16.5551L29.4181 7.6017C29.5282 7.40856 29.5832 7.17403 29.5832 6.93951C29.5832 6.18074 28.9638 5.55993 28.2068 5.55993H7.84868L6.55479 2.80078H2.05371ZM24.0773 24.874C22.5632 24.874 21.3381 26.1156 21.3381 27.6331C21.3381 29.1507 22.5632 30.3923 24.0773 30.3923C25.5915 30.3923 26.8303 29.1507 26.8303 27.6331C26.8303 26.1156 25.5915 24.874 24.0773 24.874Z" fill="#333333"/>
</symbol>
</defs>
</svg>